<?xml version="1.0" encoding="UTF-8" standalone="no"?>
<svg width="60" height="60" viewBox="0 0 205 205" fill="none" version="1.1" id="shutdown-tasks" xmlns="http://www.w3.org/2000/svg">
    <defs id="defs16">
        <linearGradient id="n" x1="-3426.5" x2="-2319.5" y1="1347.9" y2="1347.9" gradientUnits="userSpaceOnUse">
            <stop stop-color="#ff3c00" offset="0" id="stop3" />
            <stop stop-color="#ffca24" offset="1" id="stop4" />
        </linearGradient>
        <linearGradient id="m" x1="-3426.5" x2="-2319.5" y1="1347.9" y2="1347.9" gradientTransform="matrix(0.13229,-0.22914,0.22914,0.13229,-817.16,-469.46)" gradientUnits="userSpaceOnUse">
            <stop stop-color="#ff3d00" offset="0" id="stop5" />
            <stop stop-color="#ffc924" offset="1" id="stop6" />
        </linearGradient>
        <linearGradient id="l" x1="-3426.5" x2="-2319.5" y1="1347.9" y2="1347.9" gradientTransform="matrix(-0.13229,-0.22914,0.22914,-0.13229,-1632.3,3.4899)" gradientUnits="userSpaceOnUse">
            <stop stop-color="#ff3d00" offset="0" id="stop7" />
            <stop stop-color="#ffc924" offset="1" id="stop8" />
        </linearGradient>
        <linearGradient id="k" x1="-3426.5" x2="-2319.5" y1="1347.9" y2="1347.9" gradientTransform="matrix(-0.26458,0,0,-0.26458,-1630.3,945.9)" gradientUnits="userSpaceOnUse">
            <stop stop-color="#ff3d00" offset="0" id="stop9" />
            <stop stop-color="#ffc824" offset="1" id="stop10" />
        </linearGradient>
        <linearGradient id="j" x1="-3426.5" x2="-2319.5" y1="1347.9" y2="1347.9" gradientTransform="matrix(-0.13229,0.22914,-0.22914,-0.13229,-813.13,1415.4)" gradientUnits="userSpaceOnUse">
            <stop stop-color="#ff3d00" offset="0" id="stop11" />
            <stop stop-color="#ffc824" offset="1" id="stop12" />
        </linearGradient>
        <linearGradient id="i" x1="-3426.5" x2="-2319.5" y1="1347.9" y2="1347.9" gradientTransform="matrix(0.13229,0.22914,-0.22914,0.13229,2.0154,942.41)" gradientUnits="userSpaceOnUse">
            <stop stop-color="#ff3d00" offset="0" id="stop13" />
            <stop stop-color="#ffc924" offset="1" id="stop14" />
        </linearGradient>
    </defs>
    <g id="g28" transform="matrix(2.0482532,0,0,2.0482532,9.705647,-393.10741)">
        <g transform="matrix(0.21015,0,0,0.21015,216.21,142.67)" id="g21">
            <path transform="scale(0.26458)" d="m -2873,1028.4 -553.52,319.58 v 240 l 553.52,-319.58 553.52,319.58 v -240 z" fill="url(#n)" id="path16" style="fill:url(#n)" />
            <path d="m -961.59,324.89 -1.4e-4,169.11 54.993,31.75 1.3e-4,-169.11 146.45,-84.555 -54.993,-31.75 z" fill="url(#m)" id="path17" style="fill:url(#m)" />
            <path d="m -1016.6,525.75 146.45,84.555 54.993,-31.75 -146.45,-84.555 -1.7e-4,-169.11 -54.99303,31.75 z" fill="url(#l)" id="path18" style="fill:url(#l)" />
            <path d="m -870.13,673.81 146.45,-84.555 v -63.5 l -146.45,84.554 -146.45,-84.554 v 63.5 z" fill="url(#k)" id="path19" style="fill:url(#k)" />
            <path d="m -668.69,621 1.7e-4,-169.11 -54.993,-31.75 -2.1e-4,169.11 -146.45,84.555 54.993,31.75 z" fill="url(#j)" id="path20" style="fill:url(#j)" />
            <path d="m -613.69,420.14 -146.45,-84.555 -54.993,31.75 146.45,84.555 2e-4,169.11 54.993,-31.75 z" fill="url(#i)" id="path21" style="fill:url(#i)" />
        </g>
    </g>
</svg>
